<?xml version="1.0" encoding="UTF-8"?>
<svg id="Agreement" xmlns="http://www.w3.org/2000/svg" viewBox="0 0 64 64">
  <defs>
    <style>
      .cls-1 {
        fill: none;
        stroke: #231f20;
        stroke-linecap: round;
        stroke-linejoin: round;
        stroke-width: 2px;
      }
    </style>
  </defs>
  <g>
    <rect class="cls-1" x="27.76" y="51.43" width="5" height="9" rx="2.5" ry="2.5" transform="translate(19.39 118.58) rotate(-141.74)"/>
    <rect class="cls-1" x="23.53" y="48.23" width="5" height="10" rx="2.5" ry="2.5" transform="translate(13.5 111.14) rotate(-141.74)"/>
    <rect class="cls-1" x="18.98" y="44.92" width="5" height="12" rx="2.5" ry="2.5" transform="translate(6.82 104.2) rotate(-141.74)"/>
    <rect class="cls-1" x="15.67" y="42.03" width="5" height="10" rx="2.5" ry="2.5" transform="translate(3.32 95.22) rotate(-141.74)"/>
  </g>
  <g>
    <path class="cls-1" d="M33.82,55.26l2.47,2.13c.47.41,1.05.61,1.64.61.69,0,1.39-.29,1.88-.86.9-1.04.79-2.61-.23-3.51l-3.04-2.64"/>
    <path class="cls-1" d="M39.81,47.21l3.78,3.27c1.04.9,1.16,2.48.25,3.53h0c-.9,1.04-2.48,1.16-3.53.25l-5.5-4.77"/>
    <path class="cls-1" d="M43.08,43.43l5.29,4.58c1.04.9,1.16,2.48.25,3.53h0c-.9,1.04-2.48,1.16-3.53.25l-8-6.93"/>
    <path class="cls-1" d="M33.26,28.31l16.87,14.62c1.04.9,1.16,2.48.25,3.53h0c-.9,1.04-2.48,1.16-3.53.25l-7.23-6.26"/>
  </g>
  <path class="cls-1" d="M33.27,28.32l-2.49,3.16c-1.36,1.73-3.88,2.03-5.61.66l-.79-.62c-.43-.34-.51-.97-.17-1.4l6.2-7.86c1.12-1.42,2.84-2.26,4.65-2.26h0c.86,0,1.71.19,2.49.55l7.44,3.45h10v20h-4"/>
  <path class="cls-1" d="M15.3,46.64l-3.3-2.64h-3v-20h4l2.94-1.47c.7-.35,1.46-.53,2.24-.53h12.46"/>
  <path class="cls-1" d="M55,21h5c1.66,0,3,1.34,3,3v20c0,1.66-1.34,3-3,3h-5v-26h0Z" transform="translate(118 68) rotate(-180)"/>
  <path class="cls-1" d="M1,21h5c1.66,0,3,1.34,3,3v20c0,1.66-1.34,3-3,3H1v-26h0Z"/>
  <polyline class="cls-1" points="15 23 15 12 22 4 29 12 29 22"/>
  <polyline class="cls-1" points="39 4 42 4 49 12 49 24 45 24"/>
  <line class="cls-1" x1="30" y1="4" x2="22" y2="4"/>
  <line class="cls-1" x1="35" y1="4" x2="34" y2="4"/>
  <line class="cls-1" x1="29.04" y1="24" x2="29" y2="24"/>
  <polyline class="cls-1" points="20 22 20 17 24 17 24 22"/>
  <line class="cls-1" x1="49" y1="12" x2="29" y2="12"/>
  <line class="cls-1" x1="22" y1="4" x2="13" y2="14.29"/>
</svg>