<?xml version="1.0" encoding="UTF-8"?>
<svg id="Architect" xmlns="http://www.w3.org/2000/svg" viewBox="0 0 64 64">
  <defs>
    <style>
      .cls-1 {
        fill: none;
        stroke: #231f20;
        stroke-linecap: round;
        stroke-linejoin: round;
        stroke-width: 2px;
      }
    </style>
  </defs>
  <path class="cls-1" d="M12,47.81v-5.13c0-2.75,1.87-5.15,4.54-5.82l8.15-2.03,3.31-.83v-4.08"/>
  <polyline class="cls-1" points="24.69 34.83 29 40 32 36 28 34"/>
  <path class="cls-1" d="M52,47.81v-5.13c0-2.75-1.87-5.15-4.54-5.82l-8.15-2.03-3.31-.83v-4.08"/>
  <polyline class="cls-1" points="39.31 34.83 35 40 32 36 36 34"/>
  <path class="cls-1" d="M1,43c0-1.66,1.34-3,3-3h3v7.08"/>
  <path class="cls-1" d="M1,43h0c0,1.74,1.24,3.23,2.95,3.55h0c8.68,1.63,17.5,2.45,26.33,2.45h1.72"/>
  <path class="cls-1" d="M52,61.81c-.33.06-.67.1-1,.13"/>
  <path class="cls-1" d="M1,43v14c0,.87.31,1.68.83,2.31.53.63,1.27,1.08,2.12,1.24,8.68,1.63,17.5,2.45,26.33,2.45h3.44c4.44,0,8.87-.21,13.28-.62"/>
  <path class="cls-1" d="M63,43v14c0,.87-.31,1.68-.83,2.31-.53.63-1.27,1.08-2.12,1.24-1.35.25-2.7.49-4.05.69"/>
  <path class="cls-1" d="M57,47.08v-7.08h3c1.66,0,3,1.34,3,3"/>
  <path class="cls-1" d="M63,43h0c0,1.74-1.24,3.23-2.95,3.55h0c-8.68,1.63-17.5,2.45-26.33,2.45h-1.72"/>
  <path class="cls-1" d="M32,31h0c-4.42,0-8-3.58-8-8v-7h16v7c0,4.42-3.58,8-8,8Z"/>
  <path class="cls-1" d="M23,16h1v6h-1c-1.66,0-3-1.34-3-3h0c0-1.66,1.34-3,3-3Z"/>
  <path class="cls-1" d="M43,16h1v6h-1c-1.66,0-3-1.34-3-3h0c0-1.66,1.34-3,3-3Z" transform="translate(84 38) rotate(-180)"/>
  <path class="cls-1" d="M44,16h-24v-1.4c0-.94.65-1.75,1.57-1.95l4.51-1c1.95-.43,3.93-.65,5.93-.65h0c1.99,0,3.98.22,5.93.65l4.51,1c.92.2,1.57,1.01,1.57,1.95v1.4Z"/>
  <path class="cls-1" d="M29.15,11.15l.77-9.23c.05-.52.48-.92,1-.92h2.16c.52,0,.95.4,1,.92l.77,9.23"/>
  <path class="cls-1" d="M34.09,2.07c4.46.53,7.91,4.33,7.91,8.93v1.55"/>
  <path class="cls-1" d="M22,12.55v-1.55c0-4.6,3.45-8.4,7.91-8.93"/>
</svg>