<?xml version="1.0" encoding="UTF-8"?>
<svg id="Layer_2" data-name="Layer 2" xmlns="http://www.w3.org/2000/svg" viewBox="0 0 218.85 183.1">
  <defs>
    <style>
      .cls-1 {
        fill: #002136;
      }

      .cls-2 {
        fill: #feb413;
      }
    </style>
  </defs>
  <g id="Layer_1-2" data-name="Layer 1">
    <g>
      <path class="cls-1" d="M183.65,26.93C163.63,10.97,137.27,2.19,109.42,2.19S55.21,10.97,35.2,26.93C13.91,43.9,2.19,66.84,2.19,91.55s11.73,47.65,33.01,64.62c20.02,15.95,46.37,24.74,74.22,24.74s54.21-8.79,74.22-24.74c21.28-16.97,33.01-39.92,33.01-64.62s-11.73-47.65-33.01-64.62ZM109.42,161.77c-48.65,0-88.1-31.44-88.1-70.23S60.77,21.32,109.42,21.32s88.1,31.44,88.1,70.22-39.45,70.23-88.1,70.23Z"/>
      <path class="cls-2" d="M109.42,2.19c27.85,0,54.21,8.79,74.22,24.74,21.28,16.97,33.01,39.92,33.01,64.62s-11.73,47.65-33.01,64.62c-20.02,15.95-46.38,24.74-74.22,24.74s-54.21-8.79-74.22-24.74C13.91,139.2,2.19,116.25,2.19,91.55S13.91,43.9,35.2,26.93C55.21,10.97,81.57,2.19,109.42,2.19M109.42,161.77c48.65,0,88.1-31.44,88.1-70.23S158.08,21.32,109.42,21.32,21.32,52.77,21.32,91.55s39.45,70.23,88.1,70.23M109.42,0c-28.34,0-55.19,8.96-75.59,25.22C12.02,42.61,0,66.17,0,91.55s12.02,48.94,33.84,66.33c20.4,16.26,47.25,25.22,75.59,25.22s55.19-8.96,75.59-25.22c21.82-17.4,33.84-40.95,33.84-66.33s-12.02-48.93-33.84-66.33C164.61,8.96,137.76,0,109.42,0ZM109.42,159.59c-47.37,0-85.91-30.52-85.91-68.04S62.05,23.51,109.42,23.51s85.91,30.52,85.91,68.04-38.54,68.04-85.91,68.04Z"/>
      <g>
        <path class="cls-2" d="M22.72,49.87l-1.73,2.74,7.11,4.48-1.04,1.65-7.11-4.48-1.73,2.74-1.46-.92,4.5-7.13,1.46.92Z"/>
        <path class="cls-2" d="M25.27,43.89l1.29-1.52,10.13,3.72-1.31,1.54-2.47-.99-2.41,2.83,1.38,2.28-1.31,1.54-5.3-9.41ZM31.56,46.09l-4.09-1.64,2.28,3.77,1.81-2.13Z"/>
        <path class="cls-2" d="M34.76,40.77c-.41-.46-.73-.99-.96-1.58-.23-.59-.34-1.21-.35-1.87,0-.65.13-1.29.4-1.92.27-.63.7-1.2,1.29-1.73.7-.62,1.44-1,2.22-1.14.78-.14,1.51-.08,2.2.19l-.44,1.78c-.38-.17-.75-.25-1.1-.23-.35.02-.68.09-.97.23-.29.14-.56.31-.78.51-.37.33-.63.69-.77,1.08-.14.39-.2.79-.17,1.2.03.41.13.8.31,1.18.18.38.4.72.66,1.02.3.33.64.61,1.02.82.38.22.78.36,1.18.42.41.07.81.05,1.21-.06.4-.1.76-.3,1.09-.59.23-.21.44-.46.61-.75.17-.29.29-.62.34-.97.05-.35.02-.72-.11-1.09l1.82-.38c.19.51.23,1.05.12,1.61-.1.56-.31,1.1-.61,1.61-.3.51-.66.94-1.07,1.31-.54.48-1.14.81-1.78.98-.65.17-1.3.22-1.95.13-.66-.09-1.28-.28-1.87-.59-.59-.31-1.1-.7-1.53-1.17Z"/>
        <path class="cls-2" d="M51.11,34.37c-.62.41-1.26.67-1.92.76-.66.1-1.31.06-1.94-.1-.63-.17-1.22-.44-1.76-.82-.54-.38-.99-.84-1.35-1.37-.37-.56-.63-1.17-.76-1.82-.13-.65-.15-1.3-.04-1.94.1-.64.33-1.25.67-1.82.35-.57.82-1.05,1.42-1.45.61-.41,1.25-.65,1.91-.74.67-.09,1.31-.05,1.95.13.63.17,1.21.45,1.75.82.54.37.98.83,1.34,1.37.37.55.62,1.15.76,1.8.13.65.15,1.29.05,1.94-.1.64-.33,1.25-.68,1.81-.35.56-.82,1.04-1.41,1.44ZM45.82,31.72c.24.36.53.68.87.95.34.27.7.46,1.09.59.39.13.78.16,1.19.11.41-.05.81-.2,1.19-.46.4-.26.69-.58.89-.95.2-.37.31-.76.34-1.17.02-.41-.02-.82-.14-1.23-.12-.41-.29-.78-.52-1.12-.24-.36-.53-.68-.87-.94-.34-.26-.7-.45-1.09-.58-.39-.13-.78-.16-1.19-.11-.41.05-.8.2-1.18.45-.4.27-.7.59-.9.95-.2.37-.31.75-.33,1.16-.03.41.02.81.13,1.21.11.4.29.78.52,1.13Z"/>
        <path class="cls-2" d="M65.67,26.29l-2.86-6-.21,5.59-.99.47-4.48-3.35,2.86,6-1.78.85-4.36-9.14,1.91-.91,5.19,3.91.25-6.5,1.89-.9,4.36,9.14-1.78.85Z"/>
        <path class="cls-2" d="M70.75,13.52l1.9-.62,6.69,8.47-1.93.63-1.59-2.14-3.53,1.16-.02,2.66-1.93.63.4-10.79ZM74.96,18.69l-2.63-3.54-.03,4.41,2.66-.87Z"/>
        <path class="cls-2" d="M87.43,19.5l-1.66-9.99,4.24-.7c.46-.08.9-.05,1.31.07.42.12.79.32,1.13.59.34.27.62.59.85.96.22.37.37.76.44,1.17.09.56.05,1.12-.13,1.67-.18.55-.47,1.02-.88,1.42-.41.4-.93.65-1.55.75l-2.36.39.56,3.35-1.94.32ZM88.53,14.13l2.25-.37c.23-.04.43-.14.6-.3.17-.16.28-.38.36-.64.07-.27.08-.56.03-.88-.06-.35-.17-.63-.34-.86-.17-.22-.36-.38-.58-.47-.22-.09-.45-.11-.68-.07l-2.17.36.54,3.24Z"/>
        <path class="cls-2" d="M99.56,7.68l1.99-.14,4.43,9.84-2.02.14-1.02-2.46-3.71.26-.67,2.58-2.02.14,3.01-10.37ZM102.39,13.72l-1.69-4.07-1.1,4.27,2.79-.2Z"/>
        <path class="cls-2" d="M115.96,9.12l-3.24-.06-.16,8.4-1.95-.04.16-8.4-3.24-.06.03-1.73,8.43.16-.03,1.73Z"/>
        <path class="cls-2" d="M119.16,17.83l.94-10.09,1.96.18-.94,10.09-1.96-.18Z"/>
        <path class="cls-2" d="M129.53,19.27c-.73-.13-1.37-.39-1.91-.78-.54-.39-.99-.86-1.32-1.42-.34-.56-.57-1.16-.7-1.81-.13-.65-.13-1.29-.02-1.92.12-.66.36-1.28.71-1.84.36-.56.8-1.04,1.32-1.43.52-.39,1.1-.68,1.75-.85.64-.17,1.32-.19,2.03-.06.72.13,1.35.39,1.89.79.54.4.98.88,1.31,1.44.33.56.56,1.16.69,1.81.13.64.13,1.28.02,1.92-.12.66-.35,1.26-.7,1.82-.35.56-.79,1.04-1.31,1.43-.52.39-1.1.67-1.75.84-.64.16-1.32.18-2.02.06ZM127.54,13.7c-.08.43-.09.86-.03,1.29.06.43.18.82.38,1.18.19.36.45.66.78.91.33.25.72.41,1.18.49.47.08.9.06,1.3-.06.4-.13.75-.33,1.05-.61.3-.28.55-.61.75-.98.2-.38.33-.76.41-1.17.08-.43.08-.86.02-1.28-.06-.42-.19-.81-.38-1.17-.19-.36-.45-.66-.78-.91-.33-.25-.72-.41-1.17-.49-.48-.09-.91-.07-1.31.06-.4.13-.74.33-1.04.6-.3.27-.55.6-.75.97-.2.37-.33.76-.41,1.17Z"/>
        <path class="cls-2" d="M144.36,17.45c.21-.58.52-1.11.93-1.6.41-.48.9-.88,1.47-1.2.57-.32,1.19-.51,1.87-.57.68-.06,1.39.04,2.13.31.88.32,1.57.78,2.07,1.4.5.62.8,1.29.89,2.02l-1.78.47c-.03-.42-.14-.78-.32-1.08-.18-.3-.41-.55-.67-.74-.26-.19-.54-.34-.83-.44-.47-.17-.9-.22-1.32-.16-.41.06-.79.21-1.13.43-.34.22-.64.5-.88.83-.25.34-.44.69-.57,1.07-.15.42-.23.85-.24,1.29,0,.44.06.85.2,1.24.14.39.35.73.63,1.03.28.3.63.52,1.04.67.3.11.61.17.95.18.34.01.68-.04,1.01-.17.34-.12.64-.33.9-.62l1.2,1.42c-.36.41-.81.7-1.35.88-.54.18-1.11.26-1.7.24-.59-.02-1.14-.12-1.66-.31-.68-.24-1.25-.61-1.71-1.09-.46-.48-.81-1.04-1.05-1.65-.24-.62-.37-1.26-.38-1.93-.02-.67.08-1.3.3-1.9Z"/>
        <path class="cls-2" d="M157.92,28.66c-.66-.33-1.2-.76-1.61-1.29-.41-.53-.7-1.11-.86-1.74-.17-.63-.22-1.28-.15-1.93.06-.65.24-1.27.53-1.85.3-.6.71-1.12,1.21-1.56.5-.43,1.06-.77,1.67-1,.61-.23,1.25-.33,1.92-.31.67.02,1.32.2,1.97.52.65.33,1.18.76,1.59,1.3.41.54.69,1.12.85,1.75.16.63.21,1.28.15,1.93-.06.65-.24,1.26-.53,1.84-.3.59-.7,1.11-1.2,1.55-.5.44-1.05.77-1.66,1-.61.23-1.25.33-1.91.31-.66-.03-1.31-.2-1.95-.52ZM157.61,22.75c-.2.39-.33.8-.39,1.22-.07.43-.06.84.02,1.23.08.4.24.76.49,1.09.24.33.57.6.99.81.42.21.85.32,1.27.31.42,0,.81-.1,1.18-.28.37-.18.7-.42,1-.73.3-.3.54-.64.72-1,.2-.39.32-.8.38-1.22s.05-.83-.03-1.23c-.08-.4-.24-.76-.49-1.09-.24-.33-.57-.6-.98-.8-.43-.22-.86-.32-1.27-.31-.41,0-.81.1-1.17.28-.37.18-.7.42-.99.71-.29.3-.54.64-.72,1.01Z"/>
        <path class="cls-2" d="M171.56,24.64l-2.08,7.99,6.6-4.94,1.72,1.16-8.85,6.25-1.57-1.06,2.47-10.55,1.72,1.16Z"/>
        <path class="cls-2" d="M180.94,42.52l-1.14,1.3-5.29-4.63,6.67-7.62,5.2,4.55-1.14,1.3-3.71-3.25-1.61,1.84,3.21,2.81-1.05,1.2-3.21-2.81-1.74,1.99,3.81,3.34Z"/>
        <path class="cls-2" d="M182.28,46.3l7.65-6.64,2.94,3.38c.31.35.52.74.63,1.16.11.42.15.85.09,1.28-.05.43-.18.84-.38,1.22-.2.38-.46.71-.77.98-.32.28-.68.49-1.08.64-.4.15-.79.21-1.2.2-.4-.02-.79-.11-1.15-.28l-1.36,4.24-1.42-1.64,1.2-3.8-1.29-1.49-2.56,2.23-1.29-1.49ZM187.44,44.43l1.62,1.86c.16.19.36.3.6.35.24.05.48.03.75-.04.26-.08.51-.21.74-.41.24-.21.41-.45.51-.71.1-.26.13-.51.1-.76-.03-.25-.12-.46-.27-.64l-1.56-1.8-2.48,2.15Z"/>
        <path class="cls-2" d="M199.04,56.23c.02-.09.03-.24.04-.45,0-.21-.02-.45-.06-.72-.05-.27-.11-.55-.2-.84-.09-.29-.21-.57-.38-.83-.28-.45-.58-.74-.9-.86-.31-.12-.62-.09-.93.1-.23.15-.37.33-.42.57-.04.23-.02.52.06.87.09.35.21.78.37,1.28.22.65.36,1.24.43,1.78.06.54,0,1.02-.17,1.44-.18.42-.53.8-1.05,1.12-.46.29-.9.45-1.33.48-.43.04-.84-.03-1.23-.2-.39-.17-.75-.42-1.08-.74-.33-.32-.63-.69-.9-1.12-.27-.43-.49-.88-.67-1.36-.18-.48-.31-.97-.4-1.47-.08-.5-.11-.99-.09-1.46l1.9-.17c-.03.12-.04.31-.04.56,0,.26.03.56.08.9.05.34.13.69.25,1.06.12.36.28.71.48,1.03.28.45.58.75.87.88.3.14.59.12.87-.06.26-.16.4-.38.43-.66.03-.28,0-.61-.11-1.01-.1-.4-.23-.86-.38-1.39-.19-.64-.3-1.19-.34-1.67-.04-.48.03-.9.21-1.26.18-.36.48-.67.91-.95.59-.37,1.16-.54,1.74-.51.57.03,1.11.21,1.61.56s.94.81,1.3,1.39c.25.4.45.81.59,1.22.14.41.23.82.29,1.23.05.41.07.79.06,1.14l-1.82.12Z"/>
      </g>
      <g>
        <path class="cls-2" d="M8.94,98.78c-.06-.57,0-1.09.17-1.56.17-.48.42-.9.75-1.26.33-.37.71-.66,1.15-.88.44-.22.9-.36,1.39-.41.5-.05.99,0,1.46.14.47.14.9.36,1.29.66.39.3.71.67.96,1.11.25.44.4.93.46,1.47.06.56,0,1.08-.17,1.55-.17.48-.42.9-.75,1.26-.33.37-.72.66-1.16.88-.44.22-.89.36-1.37.41-.5.05-.99,0-1.46-.13-.47-.14-.9-.36-1.29-.66-.39-.3-.71-.67-.97-1.11-.25-.43-.41-.92-.46-1.47ZM12.56,96.44c-.29.03-.57.1-.83.21-.26.11-.49.26-.69.45-.2.19-.34.41-.45.67-.1.26-.14.55-.1.87.03.33.13.61.28.85.16.23.35.42.59.56.24.14.49.24.77.29.28.05.56.07.84.04.29-.03.56-.1.82-.21s.49-.26.69-.45c.2-.19.34-.42.44-.68.1-.26.13-.54.1-.86-.03-.33-.13-.61-.28-.84-.15-.23-.34-.42-.58-.56-.23-.14-.49-.24-.77-.3-.28-.05-.56-.07-.84-.04Z"/>
        <path class="cls-2" d="M10.63,108.61c-.14-.59-.17-1.11-.07-1.57.09-.46.28-.86.56-1.21.28-.34.62-.63,1.03-.85.41-.23.85-.4,1.33-.52l3.75-.92.42,1.7-3.75.92c-.28.07-.54.16-.78.28-.24.12-.45.26-.62.44s-.29.37-.36.6c-.07.23-.07.48,0,.77.07.3.19.53.36.7.17.17.37.29.6.36.23.07.48.1.75.09.27,0,.54-.04.81-.11l3.75-.92.42,1.7-3.75.92c-.51.12-1,.18-1.47.16-.47-.02-.91-.12-1.31-.3-.4-.18-.74-.45-1.03-.82-.29-.37-.5-.83-.64-1.41Z"/>
        <path class="cls-2" d="M20.18,118.14l-.82-2.15-5.63,2.16-.63-1.63,5.63-2.16-.83-2.16,1.43-.55,2.28,5.94-1.43.55Z"/>
        <path class="cls-2" d="M15.68,122.75l6.69-3.53,1.32,2.5c.39.73.56,1.43.52,2.08-.04.65-.24,1.23-.62,1.75-.37.52-.87.94-1.48,1.26-.68.36-1.34.53-1.99.52-.65-.01-1.24-.19-1.78-.55-.54-.35-.99-.87-1.34-1.54l-1.32-2.5ZM21.28,125.24c.39-.21.7-.46.92-.75.23-.3.35-.62.38-.97.03-.35-.06-.71-.25-1.08l-.5-.95-3.97,2.1.5.95c.2.38.45.65.76.82.31.17.65.24,1.03.22.38-.02.75-.13,1.13-.33Z"/>
        <path class="cls-2" d="M22.13,133.78c-.32-.47-.53-.95-.61-1.45-.08-.5-.07-.99.04-1.47.11-.48.3-.92.58-1.33.27-.41.61-.75,1.01-1.03.41-.29.86-.49,1.34-.59.48-.11.96-.12,1.45-.05.49.07.95.24,1.38.5.43.26.81.62,1.12,1.06.32.46.52.94.61,1.44.08.5.07.99-.04,1.47-.11.48-.31.93-.58,1.33-.27.41-.61.75-1,1.02-.41.29-.86.49-1.34.6-.48.11-.96.13-1.45.05-.49-.07-.95-.24-1.38-.5-.43-.26-.81-.61-1.12-1.06ZM24.14,129.98c-.24.17-.45.36-.62.59s-.3.47-.38.73c-.08.26-.1.53-.06.8.04.28.15.55.33.81.19.27.41.47.66.6.25.13.51.2.79.21.27,0,.55-.03.82-.12.27-.09.52-.22.76-.38.24-.17.44-.36.62-.59.17-.22.3-.47.38-.73.08-.26.1-.53.06-.8-.04-.27-.15-.54-.33-.79-.19-.27-.41-.47-.65-.6-.25-.13-.5-.2-.78-.21-.27-.01-.55.03-.82.11-.27.09-.52.22-.76.38Z"/>
        <path class="cls-2" d="M28.28,141.58c-.38-.42-.64-.88-.78-1.37-.14-.49-.19-.97-.13-1.46.05-.49.19-.95.42-1.39.22-.44.52-.82.88-1.14.38-.34.8-.58,1.26-.75.46-.16.94-.24,1.43-.22.49.01.97.12,1.43.33.46.21.87.52,1.24.92.37.42.63.87.77,1.36.14.49.19.98.13,1.47-.06.49-.2.96-.42,1.39-.22.44-.51.81-.87,1.13-.38.34-.8.59-1.26.75-.46.16-.94.24-1.43.22-.49-.02-.97-.13-1.43-.33-.46-.2-.87-.51-1.24-.92ZM29.84,137.56c-.22.19-.4.41-.55.66-.15.25-.25.5-.29.77-.05.27-.04.53.03.81.07.27.21.52.42.76.22.25.46.42.73.52.26.1.53.14.8.11.27-.02.54-.1.8-.22.26-.12.49-.28.71-.46.22-.19.4-.41.54-.66.14-.24.24-.5.29-.77.05-.27.03-.54-.04-.81-.07-.27-.22-.52-.42-.75-.22-.25-.46-.42-.72-.52-.26-.1-.52-.14-.8-.12-.27.02-.54.09-.8.21-.26.12-.49.28-.71.46Z"/>
        <path class="cls-2" d="M32.83,146.3l5.09-5.59,2.52,2.3c.26.24.46.51.58.82.12.31.19.63.18.96,0,.33-.06.65-.17.96-.11.31-.28.58-.49.81-.21.23-.45.42-.71.56-.26.14-.54.23-.82.27-.29.04-.57.03-.86-.04l-.67,3.2-1.42-1.3.57-2.78-.87-.8-1.64,1.8-1.29-1.18ZM36.79,144.55l1.18,1.08c.1.1.23.15.37.16.14,0,.29-.02.45-.09.16-.07.31-.18.44-.33.14-.15.23-.31.27-.48.04-.17.05-.32.02-.47-.03-.14-.1-.26-.2-.35l-1.14-1.04-1.39,1.53Z"/>
        <path class="cls-2" d="M42.57,154.53l4.35-6.19,1.43,1-3.47,4.93,3,2.11-.88,1.25-4.43-3.11Z"/>
        <path class="cls-2" d="M49.02,158.9l3.96-6.44,1.49.91-3.96,6.44-1.49-.91Z"/>
        <path class="cls-2" d="M57.61,155.19l-1,5.71,4.13-4.06,1.63.86-5.96,5.41-1.52-.8,1.08-7.98,1.64.86Z"/>
        <path class="cls-2" d="M60.94,165.31l3.09-6.9,1.59.71-3.09,6.9-1.59-.71Z"/>
        <path class="cls-2" d="M68.45,163.8l-1.5,4.05-1.64-.61,2.63-7.09,1.3.48,1.74,5.39,1.55-4.17,1.64.61-2.63,7.09-1.34-.5-1.74-5.26Z"/>
        <path class="cls-2" d="M77.58,171.41c-.48-.13-.91-.35-1.28-.65-.37-.3-.68-.66-.91-1.08-.23-.42-.37-.88-.43-1.39-.06-.51,0-1.04.15-1.6.14-.51.36-.95.67-1.34.31-.39.67-.7,1.09-.95.42-.24.88-.4,1.37-.47.49-.07,1-.03,1.51.11.67.19,1.22.49,1.66.92.43.43.71.92.82,1.47l-1.51.6c-.08-.37-.24-.69-.5-.96-.26-.27-.57-.46-.93-.56-.27-.08-.54-.09-.8-.04-.26.05-.5.15-.73.31-.22.16-.42.35-.58.6-.16.24-.29.52-.37.83-.09.32-.12.62-.1.91.02.29.09.56.21.8.12.24.28.45.48.63.21.17.45.3.74.38.35.1.71.1,1.07.01.37-.09.73-.26,1.09-.53l-.46,1.66c-.74.42-1.5.53-2.26.31ZM80.23,169.3l-1.42-.39.34-1.22,2.81.78-1.05,3.81-1.4-.39.71-2.59Z"/>
        <path class="cls-2" d="M83.3,174.25l.63-1.36-.51-.11.36-1.68,1.41.3-.36,1.68-.8,1.32-.73-.16Z"/>
        <path class="cls-2" d="M93.73,170.25l-.52,4.29-1.73-.21.91-7.51,1.37.17,2.95,4.84.53-4.42,1.73.21-.91,7.51-1.42-.17-2.92-4.71Z"/>
        <path class="cls-2" d="M104.46,175.56c-.57-.02-1.08-.15-1.52-.39-.45-.23-.83-.54-1.15-.92-.32-.38-.55-.8-.71-1.26-.16-.46-.23-.94-.21-1.43.02-.5.13-.98.34-1.43.21-.45.48-.84.84-1.19.35-.34.76-.61,1.23-.8.47-.19.98-.27,1.52-.25.56.02,1.06.15,1.51.39.45.23.83.54,1.15.92.32.38.55.81.71,1.27.16.46.23.93.21,1.41-.02.5-.13.98-.33,1.42-.2.45-.48.84-.84,1.19-.35.34-.77.61-1.23.8-.47.19-.97.28-1.52.25ZM102.65,171.65c-.01.29.02.57.09.85.07.28.19.52.35.74.16.22.36.4.6.54.24.14.52.21.84.23.33.01.63-.04.88-.16.25-.12.47-.29.64-.5.17-.21.3-.46.4-.73.09-.27.14-.55.16-.83.01-.29-.02-.57-.09-.85-.07-.27-.19-.52-.35-.74-.16-.22-.36-.4-.61-.53-.24-.13-.52-.2-.83-.21-.33-.01-.63.04-.87.16s-.46.28-.64.49c-.18.21-.31.45-.4.72-.09.27-.14.55-.16.83Z"/>
        <path class="cls-2" d="M120.76,175.1l-.34-4.49-1.38,3.39-.96.07-1.87-3.15.34,4.49-1.74.13-.57-7.54,1.89-.14,2.25,3.79,1.67-4.09,1.88-.14.57,7.54-1.74.13Z"/>
        <path class="cls-2" d="M126.3,166.81l1.86-.29,3.75,7.06-1.77.28-.77-1.59-2.46.39-.24,1.75-1.77.28,1.4-7.88ZM128.82,171.13l-1.32-2.73-.42,3.01,1.74-.27Z"/>
        <path class="cls-2" d="M137.79,166.09l-2.24.51,1.33,5.88-1.7.39-1.33-5.88-2.25.51-.34-1.5,6.2-1.4.34,1.5Z"/>
        <path class="cls-2" d="M145.26,163.88l-2.2.67,1.75,5.77-1.67.51-1.75-5.77-2.21.67-.44-1.47,6.08-1.84.44,1.47Z"/>
        <path class="cls-2" d="M153.76,165.48l.55,1.43-4.96,1.91-2.71-7.06,4.87-1.87.55,1.43-3.24,1.25.53,1.37,2.78-1.07.51,1.32-2.78,1.07.58,1.5,3.33-1.28Z"/>
        <path class="cls-2" d="M156.79,165.85l-3.25-6.83,3.08-1.47c.32-.15.65-.23.98-.23s.65.07.96.19c.3.13.58.3.82.52.24.22.43.47.57.76.13.28.22.57.25.87.03.3.01.58-.06.87-.07.28-.19.54-.36.78l2.71,1.82-1.74.83-2.36-1.58-1.07.51,1.05,2.2-1.58.75ZM156.67,161.52l1.44-.69c.13-.06.22-.15.28-.28.06-.13.09-.28.09-.45,0-.17-.05-.35-.14-.54-.09-.19-.2-.33-.34-.43-.14-.1-.28-.17-.43-.19-.15-.03-.28,0-.4.05l-1.39.66.89,1.87Z"/>
        <path class="cls-2" d="M169.49,151.98l-1.95,1.22,3.21,5.1-1.48.93-3.21-5.1-1.96,1.23-.82-1.3,5.38-3.38.82,1.3Z"/>
        <path class="cls-2" d="M175.39,145.68l4.58,6.01-1.39,1.06-1.88-2.47-2.4,1.83,1.88,2.47-1.39,1.06-4.58-6.01,1.39-1.06,1.77,2.33,2.4-1.83-1.77-2.33,1.39-1.06Z"/>
        <path class="cls-2" d="M185.24,144.92l1.04,1.13-3.91,3.6-5.12-5.57,3.84-3.53,1.04,1.13-2.56,2.35.99,1.08,2.2-2.02.96,1.04-2.2,2.02,1.09,1.18,2.63-2.41Z"/>
        <path class="cls-2" d="M189.7,134.25s-.13.02-.27.07c-.14.05-.3.12-.49.22-.19.09-.38.21-.57.34-.19.13-.36.29-.51.46-.19.23-.3.44-.32.63-.03.19.04.35.21.49.13.11.27.15.43.11.16-.03.34-.12.54-.25.21-.13.46-.3.75-.5.41-.29.79-.52,1.16-.67.36-.16.72-.22,1.05-.19.34.03.69.2,1.04.5.33.27.55.56.68.87.13.31.17.62.14.94-.03.32-.12.64-.28.95-.15.31-.35.61-.58.89-.24.28-.51.55-.81.8-.3.25-.62.47-.96.65-.33.19-.67.33-1.01.43l-.68-1.56s.15-.03.33-.09c.17-.06.37-.14.6-.26.23-.11.46-.25.7-.42.24-.17.45-.37.64-.59.2-.24.31-.45.33-.63.02-.18-.03-.32-.17-.44-.15-.12-.31-.15-.5-.1-.18.06-.39.16-.63.32-.24.16-.51.34-.82.54-.4.27-.77.46-1.1.58-.33.12-.64.15-.93.11-.29-.05-.58-.2-.87-.44-.41-.34-.67-.72-.79-1.14-.12-.43-.12-.86.01-1.31.13-.45.35-.87.67-1.25.23-.27.48-.51.75-.71.28-.2.56-.37.84-.51.28-.14.54-.26.79-.35l.63,1.51Z"/>
        <path class="cls-2" d="M197.77,129.39l1.27.86-2.96,4.41-6.27-4.22,2.91-4.33,1.27.86-1.94,2.88,1.22.82,1.66-2.47,1.18.79-1.66,2.47,1.33.9,1.99-2.96Z"/>
        <path class="cls-2" d="M194.7,122.6l.88-1.67,7.9,1.21-.83,1.58-1.74-.33-1.16,2.2,1.26,1.24-.83,1.58-5.49-5.82ZM199.68,123.15l-2.98-.57,2.17,2.13.82-1.56Z"/>
        <path class="cls-2" d="M201.1,113.72s-.12.06-.23.15c-.12.09-.25.21-.4.36-.15.15-.29.32-.44.51s-.25.39-.33.6c-.11.28-.14.51-.11.7.04.19.15.32.35.4.16.06.31.05.44-.03.14-.08.28-.22.44-.41.15-.19.34-.43.55-.71.29-.4.59-.74.88-1.01.3-.27.61-.44.94-.51.33-.07.71-.03,1.15.14.39.15.7.35.92.61.22.25.36.53.43.85.07.31.08.64.04.99-.05.35-.14.69-.27,1.03-.13.34-.3.68-.51,1.02-.21.33-.44.64-.7.92-.26.28-.53.53-.82.73l-1.14-1.26s.14-.08.28-.19c.15-.11.31-.26.49-.43.18-.18.36-.39.53-.62.18-.24.32-.49.42-.76.11-.29.15-.53.12-.7s-.13-.3-.3-.36c-.18-.07-.34-.05-.5.06-.16.11-.32.28-.5.5-.18.22-.38.48-.61.78-.3.38-.58.68-.86.9s-.55.35-.84.39c-.29.04-.61,0-.97-.14-.49-.19-.86-.47-1.11-.84-.25-.37-.38-.78-.4-1.25-.02-.46.06-.93.24-1.4.13-.33.29-.64.49-.91s.41-.53.63-.75.43-.42.64-.58l1.07,1.24Z"/>
        <path class="cls-2" d="M208.18,108.75c-.14.55-.36,1.02-.68,1.42-.32.39-.7.71-1.13.94-.43.23-.89.38-1.38.44-.49.06-.97.04-1.44-.08-.49-.12-.93-.33-1.33-.62-.4-.29-.73-.64-1-1.06-.27-.41-.45-.87-.53-1.37-.09-.5-.07-1.01.06-1.54.13-.54.36-1.01.68-1.41.32-.39.7-.71,1.14-.94.44-.23.9-.38,1.39-.44.49-.06.96-.04,1.42.08.49.12.93.33,1.33.61.4.29.73.64,1,1.06.27.42.45.87.54,1.37.09.49.08,1.01-.06,1.54ZM203.98,109.75c.28.07.57.1.85.08.29-.02.55-.08.8-.19.25-.11.46-.27.65-.48.18-.21.31-.47.39-.78.08-.32.09-.62.02-.9-.07-.27-.19-.51-.36-.73-.17-.21-.38-.39-.63-.53-.25-.14-.51-.25-.78-.32-.28-.07-.56-.1-.85-.08-.28.02-.55.08-.8.2-.25.11-.46.28-.64.49-.18.21-.3.47-.38.77-.08.32-.09.62-.02.89.07.27.18.51.35.72.17.21.38.39.62.54.25.15.51.25.78.32Z"/>
        <path class="cls-2" d="M205.38,99.98l4.3.44-.18,1.74-7.52-.77.14-1.38,4.78-3.03-4.43-.45.18-1.74,7.52.77-.14,1.42-4.65,3Z"/>
      </g>
      <g>
        <rect class="cls-2" x="155.76" y="68.66" width="5.25" height="60.5"/>
        <path class="cls-2" d="M160.65,99.77h-4.53c0-11.79-9.59-21.38-21.38-21.38h-14v-4.53h14c14.28,0,25.9,11.62,25.9,25.9Z"/>
        <g>
          <polygon class="cls-2" points="174.37 72.43 174.37 79.49 109.42 41.62 109.42 34.57 174.37 72.43"/>
          <polygon class="cls-2" points="109.42 34.57 109.42 41.62 44.48 79.49 44.48 72.43 109.42 34.57"/>
        </g>
        <rect class="cls-2" x="57.84" y="68.66" width="5.25" height="60.5" transform="translate(120.92 197.82) rotate(180)"/>
        <path class="cls-2" d="M62.73,99.77h-4.53c0-14.28,11.62-25.9,25.9-25.9h14v4.53h-14c-11.79,0-21.38,9.59-21.38,21.38Z"/>
        <rect class="cls-2" x="107.16" y="39" width="4.53" height="35.98"/>
        <g>
          <rect class="cls-2" x="105.08" y="59.8" width="31.01" height="4.53" transform="translate(-9.31 101.06) rotate(-43.94)"/>
          <rect class="cls-2" x="95.99" y="46.56" width="4.53" height="31.01" transform="translate(-14.62 89.74) rotate(-46.05)"/>
        </g>
        <g>
          <rect class="cls-1" x="153.23" y="117.65" width="10.3" height="4.34"/>
          <rect class="cls-1" x="151.38" y="121.44" width="14" height="4.34"/>
          <rect class="cls-1" x="149.14" y="124.82" width="18.5" height="4.34"/>
        </g>
        <g>
          <rect class="cls-1" x="55.31" y="117.65" width="10.3" height="4.34"/>
          <rect class="cls-1" x="53.46" y="121.44" width="14" height="4.34"/>
          <rect class="cls-1" x="51.21" y="124.82" width="18.5" height="4.34"/>
        </g>
        <rect class="cls-2" x="60.46" y="71.57" width="97.92" height="6.82"/>
      </g>
      <g>
        <path class="cls-2" d="M200.54,62.49c1.48,1.92,2.65,4.08,3.59,6.32.48,1.12.88,2.27,1.26,3.43.36,1.16.66,2.34.94,3.53.53,2.38.83,4.81.92,7.24.09,2.43-.04,4.87-.48,7.25-.24-2.41-.47-4.79-.8-7.14-.32-2.35-.74-4.69-1.25-7l-.39-1.73-.44-1.72c-.14-.57-.31-1.14-.47-1.71-.17-.57-.34-1.13-.5-1.71-.7-2.27-1.51-4.51-2.4-6.76Z"/>
        <path class="cls-2" d="M18.3,62.49c-.89,2.25-1.69,4.49-2.4,6.76-.16.57-.33,1.14-.5,1.71-.15.57-.32,1.14-.47,1.71l-.44,1.72-.39,1.73c-.51,2.31-.92,4.64-1.25,7-.32,2.35-.56,4.73-.8,7.14-.44-2.38-.57-4.82-.48-7.25.09-2.43.39-4.86.92-7.24.28-1.18.58-2.37.94-3.53.38-1.16.78-2.31,1.26-3.43.95-2.24,2.11-4.4,3.59-6.32Z"/>
      </g>
    </g>
  </g>
</svg>